{
	"asset":{
		"generator":"Khronos glTF Blender I/O v3.6.28",
		"version":"2.0"
	},
	"scene":0,
	"scenes":[
		{
			"name":"Scene",
			"nodes":[
				0
			]
		}
	],
	"nodes":[
		{
			"mesh":0,
			"name":"Torus"
		}
	],
	"materials":[
		{
			"doubleSided":true,
			"name":"Material.001",
			"pbrMetallicRoughness":{
				"baseColorFactor":[
					0.10946155339479446,
					0.039546091109514236,
					0.2831486761569977,
					1
				],
				"metallicFactor":0,
				"roughnessFactor":0.5
			}
		}
	],
	"meshes":[
		{
			"name":"Torus",
			"primitives":[
				{
					"attributes":{
						"POSITION":0,
						"NORMAL":1,
						"TEXCOORD_0":2
					},
					"indices":3,
					"material":0
				}
			]
		}
	],
	"accessors":[
		{
			"bufferView":0,
			"componentType":5126,
			"count":1755,
			"max":[
				1.25,
				0.24817721545696259,
				1.25
			],
			"min":[
				-1.25,
				-0.24817721545696259,
				-1.25
			],
			"type":"VEC3"
		},
		{
			"bufferView":1,
			"componentType":5126,
			"count":1755,
			"type":"VEC3"
		},
		{
			"bufferView":2,
			"componentType":5126,
			"count":1755,
			"type":"VEC2"
		},
		{
			"bufferView":3,
			"componentType":5123,
			"count":9984,
			"type":"SCALAR"
		}
	],
	"bufferViews":[
		{
			"buffer":0,
			"byteLength":21060,
			"byteOffset":0,
			"target":34962
		},
		{
			"buffer":0,
			"byteLength":21060,
			"byteOffset":21060,
			"target":34962
		},
		{
			"buffer":0,
			"byteLength":14040,
			"byteOffset":42120,
			"target":34962
		},
		{
			"buffer":0,
			"byteLength":19968,
			"byteOffset":56160,
			"target":34963
		}
	],
	"buffers":[
		{
			"byteLength":76128,
			"uri":"data:application/octet-stream;base64,"
		}
	]
}
